<svg xmlns="http://www.w3.org/2000/svg" viewBox="0 0 512 512">
  <!-- Dark background with rounded corners -->
  <rect width="512" height="512" rx="80" fill="#222222"/>

  <!-- Søkesnirk symbol - scaled and centered -->
  <g transform="translate(46, 86) scale(0.39)">
    <path fill="#f6f4f0" d="M448 506.9h27c5.9 0 5.9 0 7 1.1l4.5.5c4.4.4 4.4.4 5.5 1.5l4 .6 4 .4v2h6v2l2.7-.1c3.3.1 5.4.7 8.3 2.1v2l5 1v2h4v2h4v2l2.4.4c2.6.6 2.6.6 4.6 1.6v2l4 1v2h2v2l7 2v2h4v-2h2v-2l5-2v-2l4-1v-2h2v-2c2.6-1.5 3.9-2 7-2v-2h4v-2c3.4-2.4 4.7-3 9-3v-2h4v-2h7v-2l3.4-.4c3.4-.2 3.4-.2 4.6-1.6l7.7-.7c2.3 0 2.3 0 3.3-1.3l8.6-.1H650c5.9 0 5.9 0 7 1.1a123 123 0 0 0 11 1v2l3.5-.2c4 0 7 1 10.6 2.5q3.9 1.4 7.9 1.7v2l2.1.4q4.5 1 8.9 2.6v2h4v2h4v2h5v2l1.6.2c3.4 1.1 6.3 3 9.4 4.8v2h4v2h4v2h2v2l2.2.2c3.3 1 4.7 2.2 6.8 4.8v2h2v2l6 2v2l2.4.7c2.6 1.3 2.6 1.3 4 4l.6 2.3h2v2l5 2v2l6 2v2h2l1 2 3 1v2h3v2l1.9.4c2.1.6 2.1.6 4.1 1.6v2l1.6.2c3.4 1.1 6.3 3 9.4 4.8v2h4v2l2.2.4 6.8 1.6v2l2.4.4q6.4 1.1 13 2.6l2.4.5c6 1.4 6 1.4 7.2 2.5q3.2.3 6.4.3l4 .1 18.6.6v-2l9.2-2.5q5.4-1.5 10.8-2.5v-2h4v-2h2v-2h2v-2h2l1-3h2v-4h2v-2h2l.8-2.8c1.7-4.5 1.7-4.5 4.2-6.2 4.2-1.2 6.2-1.1 10 1v15l-1 1a86 86 0 0 0-1 9h-2l.1 2.9c-.1 3.1-.1 3.1-2.1 5.1l-1 5h-2l-2 9h-2v4h-2v4h-2l-1 4h-2v3h-2v2h-2l-.8 2.4-1.2 2.6-3 1-1 2c-1 2-1 2-3.1 2.7l-1.9.3v2h-2v2h-2v2l-3.3 1.8q-3 1.8-6 4C867 658 867 658 865 658v2h-3v2c-3 1.8-4.2 2-8 2v2h-4v2c-12.8 7.3-12.8 7.3-20 7v2h-4v2l-2.7.6-3.6.8-3.6.7c-3.2.8-3.2.8-6.1 2.9l-7.6 1.6c-4.6.4-4.6.4-8.4 2.4l-5.9.5c-3.3.2-6 .4-9.1 1.5l-5.7.1h-50.7c-2.6-.1-2.6-.1-5.6-1.1l-11-.7c-3-.3-3-.3-4-1.3a86 86 0 0 0-9-1v-2l-6.8.1c-2.2-.1-2.2-.1-4.2-1.1v-2l-3.6.1c-4.1 0-7.5-.8-11.4-2.1v-2l-2.6.1c-3.8-.1-6.7-1-10.4-2.1v-2l-2.6.2c-4-.2-6-1.4-9.4-3.2l-6-2v-2h-4v-2l-2-.3q-5.4-1.3-10.3-3.3l-2-.7-4.7-1.7v-2l-2.1-.8q-4.5-2-8.9-4.2v-2h-4v-2h-3v-2l-2.4-.8-2.6-1.2-1-3h-4v-2h-3v-2h-2v-2h-2v-2l-2.3-.8a23 23 0 0 1-6.7-4.2v-2h-2v-2h-2v-2h-2v-2h-2v-2l-3-1v-2h-2v-4l-9 2v2c-3.5 3-3.5 3-6 3l-.4 1.9c-.6 2.1-.6 2.1-1.6 4.1h-2v2h-3v2h-2l-.8 1.8a21 21 0 0 1-5.1 6l-2.1 1.8c-2 1.4-2 1.4-5 1.4v2h-2l-.8 2c-1.2 2-1.2 2-3.3 2.7l-1.9.3v2h-3v2h-4v2h-2v2h-4v2c-2.5 1.7-2.5 1.7-5.8 3.6l-3.2 2c-3 1.4-3 1.4-7 1.4v2a26 26 0 0 1-10 2v2l-2.2.8q-4 1.7-7.7 3.6c-5.5 2.6-11 3.8-16.9 5a43 43 0 0 0-7.6 2.2c-2.9 1.1-4.8 1.6-7.9 2-3.5.2-3.5.2-5.7 1.4-2.2 1-3.8 1.3-6.2 1.6-3.6 0-3.6 0-4.8 1.4a94 94 0 0 1-20.8 2.8c-3.1 0-3.1 0-5.2 1.2l-6.7.1h-23.7l-27.3.1c-10.7 0-20.4-.5-30.5-4.5q-3.8-1.4-7.8-2.7v-2h-7v-2h-6v-2l-2.6.2c-4-.2-6.7-1.5-10.4-3.2l-4-1v-2l-5-1v-2h-4v-2l-2.1-.3a36 36 0 0 1-8.9-3.7v-2h-4v-2l-2-.8c-2-1.2-2-1.2-3-4.2-3-1.2-3-1.2-6-2v-2h-2v-2h-2v-2l-3-1v-2h-2v-2h-2v-2h-2v-2h-2v-3h-2c-1.3-1.4-1.3-1.4-2.6-3.3l-1.4-1.9c-1-1.8-1-1.8-1-4.8h-2c-1.5-2.6-2-3.9-2-7h-2v-4h-2l-.8-2.1c-1.2-3-1.2-3-2.8-6-1.4-2.9-1.4-2.9-1.4-6.9h-2l-.2-2.4-.2-3-.3-3.1c0-2.4 0-2.4-1.3-3.5q-.3-4.9-.3-9.8v-7.9a10 10 0 0 1 3.3-6.3c3.7-.3 3.7-.3 7 0v2h3v2h2l3.1 6c.9 2 .9 2 .9 5h2v4h3v2h2v2h2v2l4 1v2h2v2l7 2v2l2.6.4c3.4.6 3.4.6 6.1 1.6a76 76 0 0 0 47.3-2c3-.2 3-.2 5 0v-2c3-1.3 4.8-2 8-2v-2h4l1-3c3-2 3-2 6-2v-2h2v-2c6.7-4 6.7-4 9-4v-2l3-1 2-2c2-2 2-2 5-2v-2h3v-2h2v-2l5-3 1-2h2v-2h3v-2h2v-2h2v-2h3v-2h3l1-3h2v-2c3-2 3-2 6-2v-2h2v-2c2.6-1.5 3.9-2 7-2v-2c3-2 4.4-3 8-3v-2l3.2-1.3q3.3-1.4 6.5-3.4c2.3-1.3 2.3-1.3 6.3-1.3v-2l6-1v-2h4v-2h5v-2l3.4-.4c3.4-.2 3.4-.2 4.6-1.6h9v-2l2.6-.2 6.7-.5c3.4-.4 6-1.4 9.7-1.4"/>
    <path fill="#f6f4f0" d="M301.9 150.9h7.6c27.9 0 27.9 0 39.5 4.1l1 1 7 1v2h7v2h6v2l2 .3 7.7 2 2.4.8 1.9.9 1 3h5v2h4v2h4v2h3v2l1.9.4c2.1.6 2.1.6 4.1 1.6v3l2.8.9c3.2 1.1 3.2 1.1 6.2 3.1v2h2v2l1.9 1 4.1 2v2h2v2h3v2h2v2h2v2h2v2h2v2l3 1v2h2v2h2c2 3 2 3 2 6h2v2h2v3h2l1 3 1.7 1.6c2.9 3 4.4 6.3 6.1 10 1.2 2.5 1.2 2.5 3 5.3 1.2 2.1 1.2 2.1 1.2 6.1h2c2 3.7 3 5.7 3 10h2v5h2c1.7 5.2 2.2 9.5 2 15h2v7h2c2.2 8 3.4 15.5 3.7 23.8.1 3.7.1 3.7 1.3 7.2l.1 7v3.8c-.1 3.2-.1 3.2-1.1 5.2l-.4 7.2-.1 2.8-.3 8c-.2 2-.2 2-1.2 4q-.4 4.2-.6 8.5c-.4 2.5-.4 2.5-2.4 4.5l-1 7-1 1-.4 3.1c-.6 4-2 7.2-3.6 10.9-.7 2.8-.7 2.8-1 5h-2l-.4 2.2-.6 2.8-.4 2.2-.6 1.8-2 1c-.9 1.9-.9 1.9-1.6 4l-.8 2.3-.6 1.7h-2v4h-2v4h-2v2h-2l-1 5h-2v2h-2l-.9 2.3C448 436 448 436 446 439h-2v2h-2l-.8 2c-1.2 2-1.2 2-4.2 3v2h-2v2h-2v2h-2v3h-2v2h-2v2h-3v2h-2v2h-2v2c-3.5 3-3.5 3-6 3v2h-3v2c-3 2-3 2-6 2v2h-4v2h-3v2l-4 1v2h-4v2h-5v2h-4v2h-6v2l-2.6.8c-3.3 1-3.3 1-6 2.6-4.3 2-8.6 2.8-13.2 3.8a44 44 0 0 0-7.3 2.4c-4.1 1.7-8.3 2-12.7 2.2-2.2 0-2.2 0-3.2 1.2q-5.4.4-11 .6c-3.8-.2-3.8-.2-7 1.4a82 82 0 0 1-11 .1h-8.9c-2.1-.1-2.1-.1-3.1-1.1l-8-.5c-7.9-.4-7.9-.4-9-1.5a168 168 0 0 0-13-1v-2h-7v-2l-2.4.2c-5-.3-9-2.2-13.6-4.2l-3-1v-2h-5v-2h-4v-2l-2.2-.4c-3-.6-5.3-1.6-8-3l-2.7-1.2C209 481 209 481 208 478h-4v-2l-3.3 1c-3.7 1-3.7 1-7.7 1v3h-2v2h-2v2h-2v2h-2q-2.7 5.4-5 11h-2v4h-2v8h-2v9.3q.2 6.9-.4 13.8a588 588 0 0 0-.7 46.9v10q0 8.3.3 16.5 1.1 26.1 1 52.2v271.2c.1 42 .1 42-5.2 49.1h-2v4h-2v3c-5.1 3.4-12.3 3.6-18.3 2.6-1.8-.5-1.8-.5-4.7-1.6l-3-1v-2h-2v-2h-2v-3h-2a42 42 0 0 1-2.6-10.3c0-3.5 0-3.5-1.4-4.7l-.1-7V529.2c0-3 .1-5.3 1.1-8.2l.6-11c.3-5.9.3-5.9 1.4-7l1-7h2v-7h2v-6h2v-4h2l1-5h2v-4h2v-2h2v-4h2v-3h2l1-1.9 2-4.1h2v-2h2v-3h2v-2h2v-2h2q-.6-4.6-2-9h-2v-2h-2v-2h-2v-4l-3-1c-2-3-2-3-2-6h-2v-4h-2q-3.1-5.8-5.6-11.8c-1.3-3.3-1.3-3.3-3.4-6.2v-4h-2a34 34 0 0 1-2-13h-2a39 39 0 0 1-2-15h-2v-13h-2c-3-9.3-2.2-20-2.1-29.6v-7.2c0-20.8 0-20.8 2.1-27.2h2v-9h2l-.1-3.1c.1-3.8.7-6.4 2.1-9.9h2v-6h2l.2-3c.7-4.5 2.6-8.1 4.8-12h2l.3-2.1a36 36 0 0 1 3.7-8.9h2v-3h2l.2-1.9c.8-2.1.8-2.1 2.9-3.4l1.9-.7v-4h2v-3h2l.9-2.3c1.1-2.7 1.1-2.7 3.1-5.7h2v-2h3v-3h2l.8-1.8c1.3-2.4 2.8-4 4.7-6l1.8-1.8c1.7-1.4 1.7-1.4 3.7-1.4l2-4h2v-2h2v-2h2v-2c3-2 3-2 7-2v-2h2v-2l4-1v-2h3v-2h4v-2h4v-2c3.1-1.9 5.4-2.2 9-2v-3h4v-2a93 93 0 0 1 23-7l1-1 6-.7c2.3-.3 4-1.2 6-2.3l7-1 1-1c9.9-1.4 20-1.2 29.9-1.1m-3.6 40.6c-4.2 1-8.5.9-12.7 1.1-3.6-.1-3.6-.1-6.6 1.4l-6 .6c-2.3.3-2.3.3-5 2.4q-2.8.8-5.8 1.5-6.6 1.5-13.2 3.5v2h-4v2h-4v2h-5l-1 2-3 1v2l-1.9.4c-2.1.5-2.1.5-4.1 1.6v2l-2.4.4c-2.6.5-2.6.5-4.6 1.6v2h-2v2h-2v2l-4 1v2h-3v2h-2v2h-2v2h-2v2h-2v3h-2v2h-3v4h-2v2h-2c-2.4 3-2.4 3-2 7h-2l-4 6.7c-1.2 2.3-1.2 2.3-1 5.3h-2v4h-2v5h-2v5h-2q-3 9.4-5.4 18.8c-.6 2.2-.6 2.2-1.6 3.2l-.1 4.1v8.6l-.1 21.8v2.9c0 6.5 1 11.4 3.3 17.5q1.5 5.4 1.9 11.1h2l-.2 2.6c.2 4 1.4 6 3.2 9.4q1.6 5 3 10h2l.4 1.7q1 3.7 2.6 7.3h2v2h2v4h2v2h2v2h2v3h2v2h2l3 6h2v2h2l2 5h3v2h2v2h2v2h2v2h2v2h2v3h5v2c2.8 2.3 2.8 2.3 6 2v2h4v2l9 3v2h4v2h7v2h6v2l4 .4c3.9.5 3.9.5 5 1.6l5 .5c4.9.4 4.9.4 6 1.5l6.8.1h35.4c1.8 0 1.8 0 2.8-1.1l4-.4c4-.4 7.2-1.3 10.8-2.8q6.5-2.3 13.2-3.8v-2h5v-2l9-3v-2h4v-2h4v-2q.9 0 1.7-.3c3-1 4.9-2.7 7.3-4.7l4-2v-2h2v-2h2v-2l5-2v-2h2l2-5h2v-2h2v-2h2v-2h3v-2h2v-3h2v-4h2v-2h2v-4h2v-3h2l1-3 2-1v-4h2v-5h2l.6-2q1.7-6 4-12c2-4.8 2.1-9.8 2.4-15h2l.2-3 .2-3.8.3-3.8c.3-3.4.3-3.4 1.3-6.4l.1-5.6v-3c.2-2.4.2-2.4-1.1-3.4l-.3-4.5-.1-2.7-.2-2.9v-2.8l-.4-7.1h-2l-.1-2.1c-.4-5.4-1-10-3-15q-1.5-3.3-2.6-6.9l-.7-2.3-.6-1.7h-2v-6h-2v-4h-2l-1-5h-2v-4h-2l-.4-1.9c-.5-2.1-.5-2.1-1.6-4.1h-2v-3h-2v-4h-2v-2l-2.4-2.4a18 18 0 0 1-4.6-6.6h-2v-2h-2v-2h-2v-2h-3v-2h-2v-2l-4-1v-2h-2v-2h-4v-2h-3v-2h-2v-2h-4v-2l-3-1-1-2a17 17 0 0 0-9-2v-2h-4v-2a25 25 0 0 0-11-2v-2l-2.2-.4-2.7-.5-2.8-.6c-2.3-.5-2.3-.5-3.3-1.5h-8v-2l-8.8-.4-2.5-.2h-2.5l-2.2-.2c-2-.2-2-.2-5-1.2-4.4-.2-4.4-.2-8.7.5M780.4 240.9H800c2.9.1 2.9.1 4.9 1.1l7.1.6 4 .2 2.9.2v2h9v2l3.1.4q5.1.8 9.9 2.6v2l2.3.4 6.7 1.6v2h4v2l2.1.3c3.6.9 6 2.5 8.9 4.7v2h4v2l5 2v2l1.9 1 4.1 2v2h2v2h2v2h3v2h2v2h2l2 5h2v4h2v2l3 1c2.9 3.7 4 5.2 4 10h2c1.8 3 2 4.2 2 8h2v5h2c2.5 8.1 2.5 8.1 2 12-1.2 1.9-1.2 1.9-3 3a21 21 0 0 1-9-3v-2h-2v-2l-1.8-.4-5.2-1.6v-2h-2v-2l-1.9-1-4.1-2v-2h-3v-2h-2v-2l-6-2v-2h-2v-2l-4-1v-2h-3v-2l-2.9-.7q-4.8-1.5-9.4-3.4l-2.7-1-2-.9.2 16.5c.2 8 0 15-3.2 22.5l-1.2 3.6-.8 2.4h-2v4h-2l-.3 1.7q-1.2 4-3.7 7.3h-2l-1 1.9-2 4.1h-2v2l-4 1v2l-5.2 3-3 1.7C813 370 813 370 809 370v2c-7.9 3.2-15 3.5-23.5 3.4h-3.8c-7.3 0-13-.7-19.7-3.4v-2h-5v-2h-4v-2h-4v-2h-3v-2h-2v-2h-2c-4-4.5-4-4.5-4-7h-2v-2h-3c-4-5.1-4-5.1-4-9h-2v-4h-2v-4h-2v-5l-3-1a122 122 0 0 1-2-29h-4v2l-7 2v2l-4 1v2h-2v2c-3 2-3 2-7 2v2h-2v2h-2v2l-4 1v2l-5 2v2h-2v2h-4v2h-2l-.8 2c-1.2 2-1.2 2-4.2 3v2h-2v2h-10l-.1-6.7-.1-3.7c.2-3.4.7-5.6 2.2-8.6h2l.4-2.2 1.6-6.8h2l2-6h3v-5h2v-2h2v-4h2v-2h2l.8-2c1.2-2 1.2-2 4.2-3v-2h2v-2h2v-2h2v-2h2l.7-1.8c1.7-2.8 3.4-3.8 6.3-5.2h2v-2h2v-2l3-1.7q5.1-3 10.1-6.2c3.9-2.3 6.3-3.4 10.9-3.1v-2h4v-2h7v-2l2.8-.8 3.6-1.1 3.7-1.1c2.8-.7 2.8-.7 3.9-2h10v-2l2.8-.2 3.6-.2 3.7-.3c3.8-.4 6-1.4 10.3-1.4"/>
    <path fill="#f6f4f0" d="M796 156.9h22.4c5.5 0 5.5 0 6.6 1.1l7.2.4 2.9.2h2.8l7.1.4v2h11v2l2-.1c5.8-.2 9.7.5 15 3.1q3.4 1.2 7 2v2l2.1-.1c3.3.1 5.9 1 8.9 2.1v2h4v2l1.8.4 5.2 1.6v2l4 1v2h2v2h4v2h3v2h2v2h2v2h2l2 5h3v2h2v2h2c2 3 2 3 2 6h2v3h2v2h2v4l3 1c2 3 2 4.3 2 8h2a46 46 0 0 1 3.2 20v3l-.2 7-4 2c-2.7-.9-2.7-.9-5-2v-2l-3-1c-2-3-2-3-2-6h-2v-2h-2v-2h-2c-4-4.5-4-4.5-4-7l-5-2v-2h-2v-2h-2v-2h-4v-2l-2.4-1c-2.6-1-2.6-1-4.6-2v-2h-4v-2h-4v-2h-5v-2l-2.1-.4c-2.9-.6-2.9-.6-5.6-1.5q-6.6-2-13.3-3.1v-2h-13v-2l-11.4.4-3.3.2H839l-2.9.2c-2.2 0-2.2 0-3.2 1.2l-4.1.2-2.5.1-5.3.2-2.6.1-2.3.1c-2.4.3-4 1.2-6.2 2.3-2.7.4-2.7.4-5.6.6-3.9.1-3.9.1-7.4 1.4h-10v2l-2.2.2-2.7.2-2.8.3c-2.3 0-2.3 0-3.3 1.3h-7v2l-6.2.7c-1.8.1-1.8.1-2.8 1.3h-6v2c-5 2-8.6 3.4-14 3v2h-7v2h-6v2c-3.9 1.2-7 2-11 2v2l-7 1v2l-3.3 1.2q-6.7 2.6-13.2 5.8c-2.5 1-2.5 1-6.5 1v2h-5l-1 3h-3v2l-5.7 3-3.3 1.7c-3 1.3-3 1.3-7 1.3v2c-8 5.2-15.7 6.3-25 5-2.4-1.4-2.4-1.4-4-3v-2h-2v-2h-2c-4.1-4-3.9-9.1-4-14.4-.3-16.2-.3-16.2 4-21.6h2v-3h2l.8-1.7c1.4-2.6 3-4.4 5.2-6.3h2v-2h3l1-3h3v-2h2v-2c3-2 3-2 7-2v-2h2v-2c3-2 3-2 6-2l1-3h4v-2c6.5-4 6.5-4 11-4v-2h4v-2h6l1-3c2-.8 2-.8 4.7-1.5 3.2-.9 5.7-1.7 8.6-3.2 2.9-1.4 4.6-1.6 7.7-1.3v-2l3.4-.4c3.4-.2 3.4-.2 4.6-1.6h7v-2c5.7-2.2 11-3.4 17-3.8 2 0 2 0 3-1.2l8.5-.7c2.4 0 2.4 0 3.5-1.3l7.8-.7c2.2 0 2.2 0 3.2-1.3l8-.5c6.2-.3 11.8-1.6 18-1.6M172 601h1q1.2 29 1.1 57.9v295.3q-.2 4.4-1.1 8.8l-2-1-.1-352v-3.3c.1-2.7.1-2.7 1.1-5.7M284 595l2 1c-4.7 4.7-11.3 4.4-17.5 4.8-2.4 0-2.4 0-3.5 1.2l-7.2.1h-2q-5.6 0-10.8-1.1l-7-1v-3l2 1a84 44 0 0 0 44-3M716 297l4 1 .5 7q0 2 .3 4 .3 5.5.2 11c-2-1-2-1-3-4l-.1-4v-7.1l.1-5.9-3-1z"/>
    <path fill="#f6f4f0" d="M172 520h2l-1 26-2-1v-15.4l-.1-3.3v-3c.1-2.3.1-2.3 1.1-3.3M482 316h2c1.5 3 1.1 5.7 1.1 9v3.8c-.1 3.2-.1 3.2-1.1 5.2l-2-1zM478 289l3 1a70 70 0 0 1 2 19 25 25 0 0 1-3-13.2V291h-2zM725.7 687.4l3 .3 2.3.3-1 2-4.8.1-2.7.1c-2.5-.2-2.5-.2-5.5-2.2 3.3-1.1 5.2-1 8.7-.6M468 669a22 22 0 0 1-11 4c3.2-3.7 6.3-5.6 11-4"/>
    <path fill="#f6f4f0" d="M825 245h3v2l3.4.4 3.6.6 1 2q-5.6-1-11-3zM915 577h2v8l-2 1c-1.1-3.3-.8-5.6 0-9M367.3 448.3l1.7.7c-6.7 4-6.7 4-9 4v-2c4.2-3.1 4.2-3.1 7.3-2.7M482 343h1l.1 5.4.1 3c-.2 2.6-.2 2.6-2.2 4.6l-1-4h2z"/>
  </g>
</svg>
